# xmcd CD database file
#
# Track frame offsets:
#	150
#	28145
#	58762
#	90952
#	111017
#	127942
#	156910
#	174460
#	195880
#	232202
#	252467
#	264265
#	271182
#
# Disc length: 4219 seconds
#
# Revision: 0
# Processed by: cddbd v1.5PL3 Copyright (c) Steve Scherf et al.
# Submitted via: CDex 1.51
#
DISCID=a710790d
DTITLE=Alfred Harth - Pollock
DYEAR=1900
DGENRE=Jazz
TTITLE0=hartshorn too for beat
TTITLE1=vibroechon
TTITLE2=verirrte kugel
TTITLE3=biobjetspace
TTITLE4=yero
TTITLE5=placebeau
TTITLE6=stereodyn
TTITLE7=timezoneeyes
TTITLE8=dependance day
TTITLE9=mythopoesie
TTITLE10=jam surf
TTITLE11=theta-delta
TTITLE12=eatronic
EXTD=
EXTT0=
EXTT1=
EXTT2=
EXTT3=
EXTT4=
EXTT5=
EXTT6=
EXTT7=
EXTT8=
EXTT9=
EXTT10=
EXTT11=
EXTT12=
PLAYORDER=
